<svg width="22" height="22" viewBox="0 0 22 22" fill="none" xmlns="http://www.w3.org/2000/svg">
<path d="M3.22222 21H18.7778C20.0051 21 21 20.0051 21 18.7778V3.22222C21 1.99492 20.0051 1 18.7778 1H3.22222C1.99492 1 1 1.99492 1 3.22222V18.7778C1 20.0051 1.99492 21 3.22222 21ZM3.22222 21L15.4444 8.77778L21 14.3333M8.77778 7.11111C8.77778 8.03159 8.03159 8.77778 7.11111 8.77778C6.19064 8.77778 5.44444 8.03159 5.44444 7.11111C5.44444 6.19064 6.19064 5.44444 7.11111 5.44444C8.03159 5.44444 8.77778 6.19064 8.77778 7.11111Z" stroke="white" stroke-width="2" stroke-linecap="round" stroke-linejoin="round"/>
</svg>
